<?xml version="1.0" standalone="no"?>
<!DOCTYPE svg PUBLIC "-//W3C//DTD SVG 20010904//EN"
 "http://www.w3.org/TR/2001/REC-SVG-20010904/DTD/svg10.dtd">
<svg version="1.0" xmlns="http://www.w3.org/2000/svg"
 width="512.000000pt" height="512.000000pt" viewBox="0 0 512.000000 512.000000"
 preserveAspectRatio="xMidYMid meet">
<metadata>
Created by potrace 1.14, written by Peter Selinger 2001-2017
</metadata>
<g transform="translate(0.000000,512.000000) scale(0.100000,-0.100000)"
fill="#000000" stroke="none">
<path d="M2432 4915 c-59 -42 -102 -176 -95 -297 3 -63 29 -181 52 -240 21
-56 108 -84 178 -57 81 30 115 110 108 254 -5 119 -11 145 -51 230 -27 57 -38
72 -78 103 -33 26 -82 29 -114 7z"/>
<path d="M4365 4463 c-61 -11 -196 -92 -284 -169 -24 -22 -53 -47 -65 -57 -79
-68 -162 -158 -177 -192 -30 -69 -2 -142 66 -170 58 -25 110 -6 235 83 47 33
90 64 95 69 6 4 33 26 60 48 121 98 169 173 170 266 0 31 -7 68 -14 82 -15 28
-53 45 -86 40z"/>
<path d="M740 4267 c-51 -24 -69 -56 -65 -113 4 -56 27 -97 89 -158 64 -64
248 -207 304 -236 147 -77 264 61 186 218 -15 31 -51 75 -87 108 -64 57 -200
146 -272 176 -46 19 -119 22 -155 5z"/>
<path d="M2508 3935 c-2 -2 -34 -5 -73 -8 -299 -24 -557 -148 -785 -378 -127
-127 -214 -247 -286 -394 -148 -305 -184 -605 -108 -914 74 -296 269 -563 545
-744 118 -78 289 -140 474 -174 51 -10 344 -10 410 -1 88 12 243 56 333 94
171 74 309 169 442 304 262 266 410 622 411 985 0 210 -47 399 -142 574 -144
263 -424 486 -734 584 -75 23 -102 30 -165 42 -14 3 -36 7 -50 10 -35 7 -267
24 -272 20z m272 -329 c73 -14 178 -49 245 -83 177 -90 322 -238 415 -423 30
-60 69 -158 75 -190 1 -3 7 -32 15 -65 20 -93 18 -275 -5 -396 -43 -225 -202
-475 -394 -619 -105 -79 -283 -163 -396 -186 -140 -29 -223 -34 -361 -20 -72
7 -221 43 -259 63 -11 6 -38 19 -60 29 -213 100 -386 297 -464 531 -29 86 -33
101 -47 193 -26 176 13 392 102 566 148 290 413 501 734 585 19 5 53 12 75 15
22 3 42 8 43 9 6 6 245 -3 282 -9z"/>
<path d="M2726 3215 c-81 -28 -100 -79 -100 -260 0 -79 4 -108 19 -140 53
-107 200 -114 248 -12 50 105 37 313 -24 375 -38 39 -95 53 -143 37z"/>
<path d="M2183 3175 c-88 -37 -135 -227 -88 -351 32 -85 89 -107 171 -68 83
39 120 140 102 277 -15 120 -94 180 -185 142z"/>
<path d="M2855 2553 c-16 -9 -59 -45 -95 -81 -119 -118 -208 -161 -307 -149
-106 13 -148 38 -227 137 -67 83 -105 104 -158 90 -44 -13 -62 -45 -62 -114
-1 -100 101 -250 224 -328 147 -94 349 -89 539 12 157 84 262 253 231 370 -19
71 -81 98 -145 63z"/>
<path d="M4569 2876 c-2 -2 -29 -6 -60 -9 -176 -19 -309 -76 -309 -133 0 -88
189 -185 392 -199 108 -7 241 43 292 112 31 41 33 107 5 147 -40 58 -98 81
-215 83 -56 1 -103 1 -105 -1z"/>
<path d="M418 2699 c-142 -21 -208 -74 -208 -164 0 -80 54 -139 150 -163 87
-21 362 9 441 49 94 47 94 164 1 223 -74 46 -261 73 -384 55z"/>
<path d="M3778 1421 c-86 -69 -38 -246 104 -381 70 -67 268 -217 304 -230 42
-16 107 -14 142 4 96 50 70 232 -49 347 -82 78 -291 225 -369 260 -50 22 -103
22 -132 0z"/>
<path d="M1218 1269 c-51 -14 -168 -108 -296 -238 -74 -76 -102 -122 -102
-170 1 -43 36 -109 72 -131 163 -103 552 290 473 477 -22 52 -86 79 -147 62z"/>
<path d="M2498 846 c-71 -47 -119 -198 -121 -381 0 -83 3 -108 22 -150 27 -61
55 -92 100 -111 97 -41 176 7 199 121 17 80 5 334 -19 431 -12 46 -64 103 -97
105 -9 0 -25 2 -34 4 -10 2 -32 -7 -50 -19z"/>
</g>
</svg>
